<?xml version="1.0" encoding="utf-8"?>
<!-- Generator: Adobe Illustrator 25.2.0, SVG Export Plug-In . SVG Version: 6.00 Build 0)  -->
<svg version="1.1" id="Camada_1" xmlns="http://www.w3.org/2000/svg" xmlns:xlink="http://www.w3.org/1999/xlink" x="0px" y="0px"
	 viewBox="0 0 24 10" style="enable-background:new 0 0 24 10;" xml:space="preserve">
<style type="text/css">
	.st0{fill:#FF006E;}
</style>
<g>
	<g>
		<g>
			<path class="st0" d="M0.38,7.9V2.34h2.61c0.29,0,0.56,0.05,0.8,0.15c0.24,0.1,0.44,0.23,0.61,0.4c0.17,0.17,0.3,0.37,0.39,0.59
				C4.88,3.7,4.92,3.95,4.92,4.22c0,0.26-0.05,0.51-0.15,0.73c-0.1,0.23-0.23,0.43-0.4,0.6C4.2,5.73,4,5.86,3.77,5.96
				C3.54,6.06,3.3,6.11,3.03,6.11H1.8V7.9H0.38z M1.8,5.12h1.05c0.11,0,0.2-0.03,0.29-0.08C3.23,4.98,3.3,4.91,3.37,4.82
				c0.06-0.09,0.11-0.18,0.14-0.29c0.03-0.11,0.05-0.21,0.05-0.31c0-0.1-0.02-0.21-0.06-0.31c-0.04-0.1-0.1-0.2-0.17-0.28
				C3.26,3.54,3.18,3.47,3.09,3.42C3,3.36,2.9,3.34,2.8,3.34h-1V5.12z"/>
			<path class="st0" d="M6.93,2.03v1.14H5.41V2.03H6.93z M5.51,7.9V3.74h1.32V7.9H5.51z"/>
			<path class="st0" d="M7.29,4.72V3.93C7.52,3.94,7.7,3.88,7.84,3.76c0.14-0.13,0.24-0.27,0.31-0.43c0.08-0.19,0.14-0.4,0.18-0.63
				h0.81v1.04h1.06v0.98H9.14v1.82c0,0.07,0.01,0.13,0.04,0.18c0.02,0.05,0.06,0.09,0.12,0.12C9.37,6.88,9.45,6.9,9.57,6.9
				c0.1,0,0.19-0.01,0.27-0.02c0.08-0.01,0.15-0.03,0.21-0.06c0.07-0.02,0.14-0.05,0.2-0.08v0.85c-0.09,0.09-0.2,0.16-0.33,0.21
				C9.78,7.85,9.66,7.89,9.53,7.91c-0.15,0.02-0.3,0.04-0.45,0.04c-0.16,0-0.31-0.02-0.43-0.05C8.52,7.87,8.41,7.83,8.32,7.78
				C8.23,7.72,8.16,7.66,8.1,7.59C8.04,7.52,7.99,7.45,7.95,7.37C7.87,7.21,7.83,7.01,7.82,6.79V4.72H7.29z"/>
			<path class="st0" d="M14.42,6.76c0,0.09,0.02,0.16,0.07,0.21c0.05,0.04,0.11,0.07,0.17,0.08c0.07,0.01,0.13,0,0.2-0.01
				c0.07-0.02,0.12-0.04,0.15-0.07V7.7c-0.06,0.05-0.12,0.09-0.2,0.13c-0.07,0.03-0.15,0.06-0.25,0.09
				c-0.1,0.03-0.21,0.04-0.33,0.04c-0.18,0-0.33-0.03-0.46-0.09c-0.12-0.06-0.22-0.13-0.3-0.2c-0.08-0.08-0.13-0.16-0.17-0.24
				c-0.04-0.08-0.06-0.14-0.08-0.19c-0.06,0.14-0.14,0.25-0.27,0.36c-0.1,0.09-0.24,0.18-0.42,0.25c-0.18,0.07-0.41,0.11-0.69,0.11
				c-0.22,0-0.41-0.03-0.57-0.09c-0.16-0.06-0.3-0.14-0.4-0.24c-0.11-0.1-0.19-0.22-0.24-0.36c-0.05-0.14-0.08-0.29-0.08-0.45
				c0-0.23,0.05-0.41,0.15-0.55s0.21-0.25,0.35-0.34c0.13-0.08,0.26-0.14,0.4-0.18c0.13-0.04,0.23-0.06,0.29-0.08
				c0.09-0.02,0.18-0.04,0.26-0.06c0.08-0.02,0.16-0.04,0.26-0.06c0.1-0.02,0.22-0.05,0.36-0.07c0.14-0.03,0.33-0.06,0.55-0.1
				c0-0.19-0.05-0.35-0.14-0.48c-0.1-0.13-0.25-0.2-0.47-0.2c-0.19,0-0.33,0.05-0.44,0.16c-0.1,0.11-0.17,0.25-0.19,0.42
				c-0.21-0.01-0.41-0.03-0.61-0.06c-0.2-0.03-0.4-0.05-0.61-0.06c0.02-0.21,0.08-0.4,0.18-0.58c0.1-0.18,0.22-0.33,0.38-0.47
				c0.16-0.13,0.34-0.24,0.56-0.31c0.22-0.07,0.47-0.11,0.74-0.11c0.37,0,0.68,0.05,0.92,0.14c0.24,0.09,0.43,0.21,0.57,0.34
				c0.14,0.14,0.23,0.29,0.29,0.45c0.05,0.16,0.08,0.32,0.08,0.46V6.76z M11.85,6.63c0,0.11,0.03,0.19,0.09,0.26
				C12,6.96,12.07,7,12.16,7.02c0.09,0.02,0.19,0.02,0.3,0c0.11-0.02,0.21-0.06,0.3-0.13c0.15-0.11,0.26-0.23,0.31-0.36
				c0.05-0.13,0.08-0.3,0.08-0.5c-0.14,0.04-0.29,0.07-0.44,0.09c-0.15,0.02-0.3,0.05-0.42,0.08c-0.13,0.03-0.23,0.08-0.32,0.14
				C11.89,6.41,11.85,6.51,11.85,6.63z"/>
			<path class="st0" d="M15.1,8.24c0,0,0.03,0.02,0.07,0.04c0.04,0.02,0.09,0.04,0.15,0.06c0.06,0.02,0.13,0.03,0.21,0.03
				c0.08,0,0.16-0.02,0.25-0.05c0.13-0.05,0.23-0.13,0.31-0.24c0.08-0.11,0.13-0.23,0.14-0.37l-1.52-3.95h1.33l0.85,2.93l0.85-2.93
				h1.34l-1.72,4.54c-0.05,0.13-0.11,0.26-0.2,0.4c-0.09,0.13-0.19,0.25-0.32,0.36c-0.13,0.1-0.27,0.19-0.43,0.26
				c-0.16,0.07-0.35,0.1-0.55,0.1c-0.14,0-0.28-0.01-0.42-0.04c-0.14-0.03-0.25-0.07-0.34-0.12V8.24z"/>
			<path class="st0" d="M23.02,6.76c0,0.09,0.02,0.16,0.07,0.21c0.05,0.04,0.11,0.07,0.17,0.08c0.07,0.01,0.13,0,0.2-0.01
				c0.07-0.02,0.12-0.04,0.15-0.07V7.7c-0.06,0.05-0.12,0.09-0.2,0.13c-0.07,0.03-0.15,0.06-0.25,0.09
				c-0.1,0.03-0.21,0.04-0.33,0.04c-0.18,0-0.33-0.03-0.46-0.09c-0.12-0.06-0.22-0.13-0.3-0.2C22,7.59,21.94,7.51,21.9,7.43
				c-0.04-0.08-0.06-0.14-0.08-0.19c-0.06,0.14-0.14,0.25-0.27,0.36c-0.1,0.09-0.24,0.18-0.42,0.25c-0.18,0.07-0.41,0.11-0.69,0.11
				c-0.22,0-0.41-0.03-0.57-0.09c-0.16-0.06-0.3-0.14-0.4-0.24c-0.11-0.1-0.19-0.22-0.24-0.36c-0.05-0.14-0.08-0.29-0.08-0.45
				c0-0.23,0.05-0.41,0.15-0.55s0.21-0.25,0.35-0.34c0.13-0.08,0.26-0.14,0.4-0.18c0.13-0.04,0.23-0.06,0.29-0.08
				c0.09-0.02,0.18-0.04,0.26-0.06c0.08-0.02,0.16-0.04,0.26-0.06c0.1-0.02,0.22-0.05,0.36-0.07c0.14-0.03,0.33-0.06,0.55-0.1
				c0-0.19-0.05-0.35-0.14-0.48c-0.1-0.13-0.25-0.2-0.47-0.2c-0.19,0-0.33,0.05-0.44,0.16c-0.1,0.11-0.17,0.25-0.19,0.42
				c-0.21-0.01-0.41-0.03-0.61-0.06c-0.2-0.03-0.4-0.05-0.61-0.06c0.02-0.21,0.08-0.4,0.18-0.58c0.1-0.18,0.22-0.33,0.38-0.47
				c0.16-0.13,0.34-0.24,0.56-0.31c0.22-0.07,0.47-0.11,0.74-0.11c0.37,0,0.68,0.05,0.92,0.14c0.24,0.09,0.43,0.21,0.57,0.34
				c0.14,0.14,0.23,0.29,0.29,0.45c0.05,0.16,0.08,0.32,0.08,0.46V6.76z M20.45,6.63c0,0.11,0.03,0.19,0.09,0.26
				C20.6,6.96,20.68,7,20.77,7.02c0.09,0.02,0.19,0.02,0.3,0c0.11-0.02,0.21-0.06,0.3-0.13c0.15-0.11,0.26-0.23,0.31-0.36
				c0.05-0.13,0.08-0.3,0.08-0.5c-0.14,0.04-0.29,0.07-0.44,0.09c-0.15,0.02-0.3,0.05-0.42,0.08c-0.13,0.03-0.23,0.08-0.32,0.14
				C20.49,6.41,20.45,6.51,20.45,6.63z"/>
		</g>
		<g>
			<path d="M1.18,0.44c-0.05,0-0.1-0.04-0.1-0.09C1.06,0.29,1.02,0.23,0.96,0.21l0,0C0.92,0.2,0.87,0.19,0.81,0.19
				c-0.09,0-0.15,0.02-0.2,0.06C0.57,0.28,0.55,0.33,0.55,0.39c0,0.05,0.02,0.1,0.07,0.13c0.05,0.04,0.12,0.07,0.23,0.09
				c0.13,0.03,0.22,0.08,0.29,0.14c0.07,0.06,0.1,0.14,0.1,0.23c0,0.1-0.04,0.17-0.12,0.23C1.03,1.27,0.93,1.3,0.8,1.3
				c-0.09,0-0.17-0.02-0.25-0.05C0.53,1.25,0.51,1.23,0.48,1.22c-0.06-0.04-0.1-0.11-0.1-0.18V0.91h0.05c0.04,0,0.08,0.03,0.09,0.07
				l0,0.01c0.01,0.07,0.06,0.13,0.13,0.16c0.04,0.02,0.1,0.03,0.16,0.03c0.08,0,0.15-0.02,0.19-0.05c0.05-0.03,0.07-0.08,0.07-0.14
				c0-0.06-0.02-0.1-0.06-0.14C0.97,0.81,0.89,0.78,0.79,0.75c-0.13-0.03-0.23-0.07-0.3-0.13C0.42,0.56,0.38,0.48,0.38,0.39
				c0-0.09,0.04-0.17,0.12-0.23C0.58,0.1,0.69,0.06,0.81,0.06c0.08,0,0.16,0.01,0.23,0.04C1.07,0.12,1.1,0.14,1.13,0.15
				C1.18,0.18,1.21,0.24,1.21,0.3v0.14H1.18z"/>
			<path d="M1.66,0.4h0.17c0,0.07-0.05,0.12-0.12,0.12H1.66v0.54c0,0.04,0.01,0.07,0.03,0.09C1.7,1.17,1.72,1.17,1.75,1.17
				c0.01,0,0.03,0,0.05,0c0.02,0,0.03,0,0.04-0.01c0.01,0.07-0.03,0.13-0.1,0.14c-0.02,0-0.03,0-0.04,0c-0.07,0-0.12-0.02-0.16-0.06
				c-0.04-0.04-0.06-0.1-0.06-0.19V0.52H1.47c-0.07,0-0.12-0.06-0.12-0.12h0.14V0.18c0.09,0,0.16,0.07,0.16,0.16V0.4z"/>
			<path d="M2.52,1.26C2.47,1.29,2.42,1.3,2.36,1.3c-0.1,0-0.17-0.03-0.23-0.09C2.08,1.15,2.05,1.05,2.05,0.92v-0.4
				c-0.06-0.01-0.1-0.07-0.1-0.13h0.1h0.16v0.53c0,0.1,0.01,0.16,0.04,0.2c0.03,0.04,0.07,0.06,0.13,0.06
				c0.06,0,0.11-0.01,0.14-0.04c0.04-0.02,0.07-0.06,0.09-0.1V0.52l-0.02,0C2.54,0.5,2.5,0.45,2.5,0.39h0.12h0.16v0.77l0,0
				c0.06,0.01,0.1,0.07,0.1,0.13H2.77c-0.07,0-0.14-0.06-0.14-0.13C2.6,1.2,2.56,1.24,2.52,1.26z"/>
			<path d="M3.89,1.28H3.72c-0.06,0-0.11-0.05-0.12-0.11L3.59,1.04V0.63C3.57,0.59,3.54,0.56,3.51,0.54
				C3.48,0.52,3.44,0.51,3.39,0.51c-0.08,0-0.13,0.03-0.17,0.1C3.18,0.67,3.16,0.75,3.16,0.86v0.02c0,0.09,0.02,0.16,0.06,0.22
				c0.04,0.05,0.09,0.08,0.17,0.08c0.05,0,0.09-0.01,0.12-0.03C3.53,1.12,3.55,1.1,3.57,1.08v0.06c0,0.05-0.03,0.1-0.07,0.13
				c0,0,0,0,0,0C3.45,1.29,3.4,1.3,3.35,1.3c-0.11,0-0.19-0.04-0.26-0.12C3.03,1.1,3,1,3,0.87V0.86C3,0.71,3.03,0.6,3.09,0.51
				c0.06-0.09,0.15-0.13,0.26-0.13c0.05,0,0.1,0.01,0.14,0.03c0.04,0.02,0.07,0.05,0.1,0.08V0.13l-0.03,0C3.5,0.11,3.46,0.06,3.46,0
				h0.13h0.16v1.16l0.03,0C3.85,1.17,3.89,1.22,3.89,1.28z"/>
			<path d="M4.15,1.16V0.52l-0.03,0c-0.06-0.01-0.1-0.06-0.1-0.12h0.3v0.76l0.03,0.01c0.06,0.01,0.1,0.06,0.1,0.12H4.02
				c0-0.06,0.04-0.11,0.1-0.12L4.15,1.16z M4.15,0.08C4.15,0.04,4.19,0,4.23,0h0.02c0.04,0,0.06,0.03,0.06,0.07
				c0,0.09-0.07,0.16-0.16,0.16V0.08z"/>
			<path d="M4.57,0.83c0-0.13,0.04-0.24,0.11-0.32c0.07-0.09,0.17-0.13,0.29-0.13c0.12,0,0.22,0.04,0.29,0.13
				C5.33,0.59,5.36,0.7,5.36,0.83v0.02c0,0.13-0.04,0.24-0.11,0.33C5.19,1.26,5.09,1.3,4.97,1.3c-0.12,0-0.22-0.04-0.29-0.13
				C4.61,1.09,4.57,0.98,4.57,0.85V0.83z M4.73,0.85c0,0.09,0.02,0.17,0.06,0.23c0.04,0.06,0.1,0.09,0.18,0.09
				c0.08,0,0.13-0.03,0.17-0.09C5.18,1.02,5.2,0.94,5.2,0.85V0.83c0-0.09-0.02-0.17-0.06-0.23C5.1,0.54,5.04,0.51,4.97,0.51
				c-0.08,0-0.14,0.03-0.18,0.09C4.75,0.66,4.73,0.74,4.73,0.83V0.85z"/>
		</g>
	</g>
	<g>
		<path d="M18.68,9.53c0-0.13,0.04-0.24,0.11-0.32c0.07-0.09,0.17-0.13,0.29-0.13s0.22,0.04,0.29,0.13s0.11,0.19,0.11,0.33v0.02
			c0,0.13-0.04,0.24-0.11,0.33C19.3,9.96,19.2,10,19.08,10c-0.12,0-0.22-0.04-0.29-0.13c-0.07-0.08-0.11-0.19-0.11-0.33V9.53z
			 M18.84,9.55c0,0.09,0.02,0.17,0.06,0.23c0.04,0.06,0.1,0.09,0.18,0.09c0.08,0,0.13-0.03,0.17-0.09c0.04-0.06,0.06-0.14,0.06-0.23
			V9.53c0-0.09-0.02-0.17-0.06-0.23c-0.04-0.06-0.1-0.09-0.18-0.09c-0.08,0-0.14,0.03-0.18,0.09c-0.04,0.06-0.06,0.14-0.06,0.23
			V9.55z"/>
		<path d="M19.74,9.86V9.22l-0.03-0.01c-0.06-0.01-0.1-0.06-0.1-0.12v0h0.17c0.06,0,0.12,0.05,0.12,0.11l0,0.02
			c0.06-0.09,0.15-0.15,0.26-0.15c0.19,0,0.3,0.11,0.3,0.34v0.43l0.03,0.01c0.06,0.01,0.1,0.06,0.1,0.12h-0.43
			c0-0.06,0.04-0.11,0.1-0.12l0.03-0.01V9.43c0-0.16-0.06-0.22-0.19-0.22c-0.09,0-0.17,0.05-0.21,0.13v0.52l0.03,0.01
			c0.06,0.01,0.1,0.06,0.1,0.12H19.6c0-0.06,0.04-0.11,0.1-0.12L19.74,9.86z"/>
		<path d="M20.99,8.7v1.16l0.03,0.01c0.06,0.01,0.1,0.06,0.1,0.12h-0.43c0-0.06,0.04-0.11,0.1-0.12l0.03-0.01V8.83l-0.03-0.01
			c-0.06-0.01-0.1-0.06-0.1-0.12H20.99z"/>
		<path d="M21.37,9.86V9.22l-0.03,0c-0.06-0.01-0.1-0.06-0.1-0.12h0.3v0.76l0.03,0.01c0.06,0.01,0.1,0.06,0.1,0.12h-0.43
			c0-0.06,0.04-0.11,0.1-0.12L21.37,9.86z M21.37,8.78c0-0.04,0.04-0.08,0.08-0.08h0.02c0.04,0,0.06,0.03,0.06,0.07
			c0,0.09-0.07,0.16-0.16,0.16V8.78z"/>
		<path d="M21.9,9.86V9.22l-0.03-0.01c-0.06-0.01-0.1-0.06-0.1-0.12v0h0.17c0.06,0,0.12,0.05,0.12,0.11l0,0.02
			c0.06-0.09,0.15-0.15,0.26-0.15c0.19,0,0.3,0.11,0.3,0.34v0.43l0.03,0.01c0.06,0.01,0.1,0.06,0.1,0.12h-0.43
			c0-0.06,0.04-0.11,0.1-0.12l0.03-0.01V9.43c0-0.16-0.06-0.22-0.19-0.22c-0.09,0-0.17,0.05-0.21,0.13v0.52l0.03,0.01
			c0.06,0.01,0.1,0.06,0.1,0.12h-0.43c0-0.06,0.04-0.11,0.1-0.12L21.9,9.86z"/>
		<path d="M23.62,9.56h-0.44c-0.06,0-0.12-0.05-0.11-0.12l0-0.01l0.39,0V9.41c0-0.06-0.02-0.12-0.05-0.16
			c-0.03-0.04-0.09-0.07-0.15-0.07c-0.05,0-0.1,0.02-0.14,0.07c-0.04,0.05-0.06,0.11-0.07,0.17l-0.01,0.14
			c0,0.09,0.02,0.16,0.07,0.21c0.04,0.06,0.1,0.08,0.18,0.08c0.06,0,0.1-0.01,0.15-0.02c0.01,0,0.01-0.01,0.02-0.01
			c0.06-0.02,0.12,0,0.15,0.05c-0.03,0.03-0.07,0.06-0.13,0.08c-0.05,0.02-0.12,0.03-0.19,0.03c-0.13,0-0.23-0.04-0.3-0.13
			c-0.07-0.08-0.11-0.19-0.11-0.33V9.5c0-0.13,0.04-0.24,0.11-0.32c0.08-0.08,0.17-0.13,0.27-0.13c0.12,0,0.21,0.04,0.28,0.11
			c0.06,0.07,0.09,0.17,0.09,0.29V9.56z"/>
	</g>
</g>
</svg>
